<svg xmlns="http://www.w3.org/2000/svg" width="32" height="32"><svg id="plate" viewBox=".25 .5 5.5 5.5"><path d="M1.25 2q1-1.4 2.8-.2 1.8 1.2.8 2.6-1 1.4-2.8.2-1.8-1.2-.8-2.6" stroke="#343434" stroke-width=".8" fill="#8F9E98"/></svg><svg id="pizza" viewBox="7.5 .75 4.5 4"><path d="M8.25 1.75q.5-1 2.24-.16 1.39.58.64 2.08-.5 1-2.24.16-1.39-.58-.64-2.08" stroke="#5C4026" stroke-width=".8" fill="#A4553B"/><path d="M8.5 2.5q0-.5.25-.5.75 0 1-.25.25-.25.75.75 0 .25.25.25.5 0 0 .75-.25.25-.75 0-.25-.25-.75 0-.5.25-.75-1" fill="#AC9E65"/><g fill="#920900"><circle r=".35" cx="9.5" cy="3"/><circle r=".3" cx="10.5" cy="3.25"/><circle r=".28" cx="10.25" cy="2.25"/><circle r=".38" cx="9.25" cy="2"/></g></svg></svg>