<svg viewBox="0 -16 64 64" xmlns="http://www.w3.org/2000/svg"><path d="M66-8 72-4M60-8 72 0M54-8 72 4M48-8 72 8M42-8 72 12M36-8 72 16M30-8 72 20M24-8 72 24M18-8 72 28M12-8 72 32M6-8 72 36M0-8 72 40M-6-8 72 44M-8-5.333 66 44M-8-1.333 60 44M-8 2.667 54 44M-8 6.667 48 44M-8 10.667 42 44M-8 14.667 36 44M-8 18.667 30 44M-8 22.667 24 44M-8 26.667 18 44M-8 30.667 12 44M-8 34.667 6 44M-8 38.667 0 44M-8 42.667-6 44M-8-6.667-6-8M-8-2.667 0-8M-8 1.333 6-8M-8 5.333 12-8M-8 9.333 18-8M-8 13.333 24-8M-8 17.333 30-8M-8 21.333 36-8M-8 25.333 42-8M-8 29.333 48-8M-8 33.333 54-8M-8 37.333 60-8M-8 41.333 66-8M-6 44 72-8M0 44 72-4M6 44 72 0M12 44 72 4M18 44 72 8M24 44 72 12M30 44 72 16M36 44 72 20M42 44 72 24M48 44 72 28M54 44 72 32M60 44 72 36M66 44 72 40" fill="none"/><svg id="table" viewBox="5 2 23 23"><path d="M7 11.5v7M26 9.5v7" stroke="#502D25" stroke-width="1.5" stroke-linecap="round"/><path d="M6 11l9 6 12-8-9-6z" fill="#6E4630" stroke="#281A09" stroke-linejoin="round"/></svg><svg id="table-leg" viewBox="5 2 23 23"><path d="M15 16.5v7" stroke="#502D25" stroke-width="1.5" stroke-linecap="round"/><path d="M12 15l3 2 1.5-1" stroke="#281A09" stroke-linejoin="round" fill="#6E4630"/></svg><svg id="chair-up" viewBox="20 20 8 12"><g stroke-linejoin="round"><path d="M21 26l3 2 3-2-3-2z" fill="#334D70" stroke="#1F2F3D"/><path d="M21 24.5l0 4.5 0-8 3 2 0 3.5zm3 2 0 4.5m3-5 0 3" fill="#2B4B5A" stroke="#6B7882" stroke-linecap="round"/></g></svg><svg id="chair-down" viewBox="5 20 8 14.5"><g stroke-linejoin="round"><path d="M6 26.5l0 4.5 0-8 3-2 0 3.5zm3-2 0 4.5m3-1 0 3m-3-1 0 3.5" fill="#2B4B5A" stroke="#6B7882" stroke-linecap="round"/><path d="M6 28l3 2 3-2-3-2z" fill="#334D70" stroke="#1F2F3D"/></g></svg><svg id="rug" viewBox="32 15 20 14"><g stroke="#1F3D1E" stroke-linejoin="round"><path d="M33 22l9 6 9-6-9-6z" fill="#357045"/><path d="M36 24l0-4 3 0 0-2 6 0 0 2 3 0 0 4-3 0 0 2-6 0 0-2zm3 0 3-2-3-2m3 2 3-2m-3 2 3 2m-6 0 6 0 0-4-6 0 0 4" fill="none" opacity=".75"/></g></svg><svg id="desk" viewBox="36.5 -6 23 22.5"><g stroke="#677E81" stroke-linecap="round"><path d="M49.5-5v6.5m9-.5v6.5m-12 1.5v6.5m-9-12.5v6.5" fill="none"/><path d="M49.5-5l9 6-12 8-9-6" fill="#36637C" fill-opacity=".7" stroke-linejoin="round"/></g></svg></svg>