<svg viewBox="0 0 32 36" xmlns="http://www.w3.org/2000/svg"><svg id="table" viewBox="5 2 23 23"><path d="M7 11.5v7M15 16.5v7M26 9.5v7" stroke="#502D25" stroke-width="1.5" stroke-linecap="round"/><path d="M6 11l9 6 12-8-9-6z" fill="#6E4630" stroke="#281A09" stroke-linejoin="round"/></svg><svg id="chair-up" viewBox="20 20 8 12"><path d="M21 26l3 2 3-2-3-2z" fill="#334D70" stroke="#1F2F3D" stroke-linejoin="round"/><path d="M21 24.5l0 4.5 0-8 3 2 0 3.5zm3 2 0 4.5m3-5 0 3" fill="#2B4B5A" stroke="#6B7882" stroke-linejoin="round" stroke-linecap="round"/></svg><svg id="chair-down" viewBox="5 20 8 14.5"><path d="M6 26.5l0 4.5 0-8 3-2 0 3.5zm3-2 0 4.5m3-1 0 3m-3-1 0 3.5" fill="#2B4B5A" stroke="#6B7882" stroke-linejoin="round" stroke-linecap="round"/><path d="M6 28l3 2 3-2-3-2z" fill="#334D70" stroke="#1F2F3D" stroke-linejoin="round"/></svg></svg>