<svg viewBox="0 -8 64 64" xmlns="http://www.w3.org/2000/svg"><svg id="table" viewBox="5 2 23 23"><path d="M7 11.5v7M26 9.5v7" stroke="#502D25" stroke-width="1.5" stroke-linecap="round"/><path d="M6 11l9 6 12-8-9-6z" fill="#6E4630" stroke="#281A09" stroke-linejoin="round"/></svg><svg id="table-leg" viewBox="5 2 23 23"><path d="M15 16.5v7" stroke="#502D25" stroke-width="1.5" stroke-linecap="round"/><path d="M12 15l3 2 1.5-1" stroke="#281A09" stroke-linejoin="round" fill="#6E4630"/></svg><svg id="chair-up" viewBox="20 20 8 12"><g stroke-linejoin="round"><path d="M21 26l3 2 3-2-3-2z" fill="#334D70" stroke="#1F2F3D"/><path d="M21 24.5l0 4.5 0-8 3 2 0 3.5zm3 2 0 4.5m3-5 0 3" fill="#2B4B5A" stroke="#6B7882" stroke-linecap="round"/></g></svg><svg id="chair-down" viewBox="5 20 8 14.5"><g stroke-linejoin="round"><path d="M6 26.5l0 4.5 0-8 3-2 0 3.5zm3-2 0 4.5m3-1 0 3m-3-1 0 3.5" fill="#2B4B5A" stroke="#6B7882" stroke-linecap="round"/><path d="M6 28l3 2 3-2-3-2z" fill="#334D70" stroke="#1F2F3D"/></g></svg><svg id="rug" viewBox="32 15 20 14"><g stroke="#1F3D1E" stroke-linejoin="round"><path d="M33 22l9 6 9-6-9-6z" fill="#357045"/><path d="M36 24l0-4 3 0 0-2 6 0 0 2 3 0 0 4-3 0 0 2-6 0 0-2zm3 0 3-2-3-2m3 2 3-2m-3 2 3 2m-6 0 6 0 0-4-6 0 0 4" fill="none" opacity=".75"/></g></svg><svg id="desk" viewBox="36.5 -6 23 22.5"><g stroke="#677E81" stroke-linecap="round"><path d="M49.5-5v6.5m9-.5v6.5m-12 1.5v6.5m-9-12.5v6.5" fill="none"/><path d="M49.5-5l9 6-12 8-9-6" fill="#36637C" fill-opacity=".7" stroke-linejoin="round"/></g></svg></svg>