<svg viewBox="0 0 24 24" fill="none" xmlns="http://www.w3.org/2000/svg" stroke="#1C274C" stroke-width="1.5"><circle cx="12" cy="12" r="3"/><path d="M13.7654 2.15224C13.3978 2 12.9319 2 12 2 11.0681 2 10.6022 2 10.2346 2.15224 9.74457 2.35523 9.35522 2.74458 9.15223 3.23463 9.05957 3.45834 9.0233 3.7185 9.00911 4.09799 8.98826 4.65568 8.70226 5.17189 8.21894 5.45093 7.73564 5.72996 7.14559 5.71954 6.65219 5.45876 6.31645 5.2813 6.07301 5.18262 5.83294 5.15102 5.30704 5.08178 4.77518 5.22429 4.35436 5.5472 4.03874 5.78938 3.80577 6.1929 3.33983 6.99993 2.87389 7.80697 2.64092 8.21048 2.58899 8.60491 2.51976 9.1308 2.66227 9.66266 2.98518 10.0835 3.13256 10.2756 3.3397 10.437 3.66119 10.639 4.1338 10.936 4.43789 11.4419 4.43786 12 4.43783 12.5581 4.13375 13.0639 3.66118 13.3608 3.33965 13.5629 3.13248 13.7244 2.98508 13.9165 2.66217 14.3373 2.51966 14.8691 2.5889 15.395 2.64082 15.7894 2.87379 16.193 3.33973 17 3.80568 17.807 4.03865 18.2106 4.35426 18.4527 4.77508 18.7756 5.30694 18.9181 5.83284 18.8489 6.07289 18.8173 6.31632 18.7186 6.65204 18.5412 7.14547 18.2804 7.73556 18.27 8.2189 18.549 8.70224 18.8281 8.98826 19.3443 9.00911 19.9021 9.02331 20.2815 9.05957 20.5417 9.15223 20.7654 9.35522 21.2554 9.74457 21.6448 10.2346 21.8478 10.6022 22 11.0681 22 12 22 12.9319 22 13.3978 22 13.7654 21.8478 14.2554 21.6448 14.6448 21.2554 14.8477 20.7654 14.9404 20.5417 14.9767 20.2815 14.9909 19.902 15.0117 19.3443 15.2977 18.8281 15.781 18.549 16.2643 18.2699 16.8544 18.2804 17.3479 18.5412 17.6836 18.7186 17.927 18.8172 18.167 18.8488 18.6929 18.9181 19.2248 18.7756 19.6456 18.4527 19.9612 18.2105 20.1942 17.807 20.6601 16.9999 21.1261 16.1929 21.3591 15.7894 21.411 15.395 21.4802 14.8691 21.3377 14.3372 21.0148 13.9164 20.8674 13.7243 20.6602 13.5628 20.3387 13.3608 19.8662 13.0639 19.5621 12.558 19.5621 11.9999 19.5621 11.4418 19.8662 10.9361 20.3387 10.6392 20.6603 10.4371 20.8675 10.2757 21.0149 10.0835 21.3378 9.66273 21.4803 9.13087 21.4111 8.60497 21.3592 8.21055 21.1262 7.80703 20.6602 7 20.1943 6.19297 19.9613 5.78945 19.6457 5.54727 19.2249 5.22436 18.693 5.08185 18.1671 5.15109 17.9271 5.18269 17.6837 5.28136 17.3479 5.4588 16.8545 5.71959 16.2644 5.73002 15.7811 5.45096 15.2977 5.17191 15.0117 4.65566 14.9909 4.09794 14.9767 3.71848 14.9404 3.45833 14.8477 3.23463 14.6448 2.74458 14.2554 2.35523 13.7654 2.15224Z"/></svg>